<svg version="1.1" id="Layer_1" xmlns="http://www.w3.org/2000/svg" xmlns:xlink="http://www.w3.org/1999/xlink" x="0px" y="0px"
	 width="100%" viewBox="0 0 880 816" enable-background="new 0 0 880 816" xml:space="preserve">
<path fill="#F97316" opacity="1.000000" stroke="none" 
	d="
M424.084625,120.684853 
	C431.405396,120.676109 438.243164,120.838799 445.069580,120.630585 
	C467.485535,119.946877 489.372223,123.205681 511.134735,128.387283 
	C531.883118,133.327408 552.177673,139.367279 571.480835,148.551758 
	C610.058655,166.907120 643.777405,191.871490 671.566833,224.261063 
	C699.813599,257.183594 719.231506,295.074524 731.361633,336.734344 
	C736.281067,353.629761 740.213745,370.741119 742.224731,388.196106 
	C743.703918,401.035309 743.767700,413.971832 743.645142,426.952911 
	C743.327148,460.628601 735.900696,492.761169 724.060791,523.974548 
	C709.712402,561.801514 688.611938,595.432617 660.471313,624.670776 
	C634.071289,652.100525 604.126282,674.453796 569.348389,690.119751 
	C542.667725,702.138245 514.940063,710.499084 485.860779,714.482239 
	C466.332947,717.157104 446.732147,718.091431 427.136414,717.200562 
	C397.589081,715.857239 369.026428,709.301941 341.256226,699.043396 
	C308.435822,686.919312 278.554230,669.765076 251.501785,647.651245 
	C232.153061,631.834717 215.811111,613.157349 201.226471,592.999695 
	C180.028198,563.701111 164.917953,531.375671 155.451248,496.491577 
	C150.393219,477.853088 147.843506,458.825409 146.429565,439.507141 
	C144.245911,409.672333 147.341537,380.344879 153.024704,351.237030 
	C158.068695,325.402893 168.412781,301.336060 180.741714,278.242645 
	C198.975342,244.089035 222.835739,214.198837 252.607422,189.421448 
	C282.872894,164.233078 316.846344,145.624222 354.906982,134.755768 
	C369.288483,130.649033 383.698639,126.694641 398.387817,123.914581 
	C406.705109,122.340446 415.113403,121.134377 424.084625,120.684853 
M684.488098,573.043335 
	C694.437866,557.398621 703.038757,541.037231 709.409485,523.625427 
	C718.390930,499.078583 726.168884,474.065002 728.412964,447.937531 
	C730.432983,424.418732 730.709900,400.779083 726.805420,377.270111 
	C722.234314,349.747070 715.337830,322.872650 703.178955,297.726807 
	C683.077515,256.155029 654.836609,221.124741 618.069031,192.812683 
	C571.555725,156.996170 518.730286,138.282089 460.756836,133.624283 
	C438.546295,131.839813 416.264801,133.330856 394.224365,137.619308 
	C349.910187,146.241608 309.386810,163.107361 273.364471,190.720459 
	C238.291428,217.605881 209.970993,250.138077 190.043854,289.539032 
	C172.548843,324.131042 161.989227,360.710907 160.110275,399.806824 
	C159.132507,420.151367 159.040085,440.399506 161.628571,460.491119 
	C165.459656,490.227661 174.843033,518.497620 188.423935,545.171021 
	C211.131683,589.769836 242.837173,626.784912 284.480286,654.787537 
	C328.561615,684.429932 376.824829,702.525024 430.323669,704.483521 
	C462.705933,705.668945 494.686310,703.079041 525.941162,693.164917 
	C557.371460,683.195068 586.331848,668.833191 612.693787,649.056030 
	C640.798523,627.971375 664.902771,603.151550 684.488098,573.043335 
z"/>
<path fill="#F97316" opacity="1.000000" stroke="none" 
	d="
M609.987671,529.877686 
	C589.527649,578.198853 554.082214,609.595886 505.095703,626.446045 
	C482.568695,634.194885 459.501099,638.925049 435.735840,638.226685 
	C392.307983,636.950500 352.434906,624.382263 318.526703,596.543823 
	C294.041473,576.441589 276.830780,551.086609 271.217957,519.351562 
	C263.619171,476.387543 276.835632,440.654236 310.596008,412.818604 
	C336.852600,391.169952 367.699432,385.888824 400.359009,389.408844 
	C427.290894,392.311493 451.479828,402.772064 471.842865,420.857025 
	C492.611664,439.302307 504.729828,462.348907 504.167450,490.553406 
	C503.770569,510.459534 495.734802,528.077576 483.632935,543.691284 
	C467.707428,564.238281 446.100708,575.745422 421.110443,581.069153 
	C415.585602,582.246155 409.359863,582.379761 403.450409,579.244873 
	C405.781555,576.074036 408.855011,576.021362 411.329071,574.997742 
	C431.046661,566.839783 447.364227,553.958435 457.762939,535.643250 
	C476.534515,502.580780 475.292542,467.341309 451.929504,436.318420 
	C436.230438,415.472321 414.757111,403.537231 387.901245,401.046265 
	C359.179749,398.382233 334.577423,406.586761 313.517944,425.563751 
	C297.334900,440.146515 287.289886,458.503204 283.405243,480.077606 
	C277.975525,510.233276 286.147064,537.061951 304.090302,561.098572 
	C321.885315,584.936707 345.228058,601.750366 373.191864,611.733337 
	C397.450073,620.393555 422.583344,622.829895 448.313324,621.310120 
	C465.101135,620.318481 481.276276,617.201355 496.740387,610.862183 
	C520.731873,601.027405 541.279846,586.331116 557.391418,565.822876 
	C579.900635,537.171082 586.950623,504.497772 583.065308,468.735687 
	C578.843689,429.878387 558.073303,402.385315 525.715027,382.250580 
	C504.141418,368.826477 480.548065,360.502411 456.402954,353.297058 
	C436.017914,347.213776 414.972382,343.748810 394.667175,337.397888 
	C381.269073,333.207367 368.289948,328.270447 357.318542,319.002289 
	C345.616486,309.116882 342.390076,296.066620 343.280975,281.760437 
	C344.978394,254.502670 363.158569,240.059067 386.004059,231.006744 
	C410.286957,221.384903 435.953888,219.215530 462.011108,221.447372 
	C478.808624,222.886093 495.403656,224.788116 510.659546,232.776230 
	C516.683716,235.930542 522.382935,239.615128 529.145020,244.361404 
	C529.745239,229.157394 530.295349,215.221634 530.841370,201.389481 
	C537.164856,199.973190 538.827881,201.486542 539.405212,207.491455 
	C541.237793,226.553024 541.216248,245.657150 541.523865,264.774078 
	C541.693542,275.320099 543.522400,285.838562 544.573486,296.372437 
	C544.686584,297.505951 544.762268,298.687012 544.571777,299.797394 
	C544.230286,301.788452 543.737610,303.812897 541.233704,304.192749 
	C538.866760,304.551788 537.529053,303.187012 536.492310,301.300873 
	C532.964172,294.882050 529.404297,288.480774 525.877869,282.061035 
	C511.379547,255.667450 488.384552,241.822495 459.255676,237.341309 
	C436.699615,233.871277 415.196686,237.582458 394.982208,248.163391 
	C386.740234,252.477524 380.423798,258.774750 377.808960,268.012024 
	C374.873047,278.383484 379.755890,290.043182 389.331451,297.121002 
	C399.354309,304.529510 410.837067,308.049713 422.770660,310.671692 
	C452.794373,317.268219 482.863953,323.909821 511.664978,334.797089 
	C541.236328,345.975525 568.393616,361.285400 588.925720,386.217041 
	C600.504395,400.276703 608.944336,416.030273 613.338318,433.802856 
	C618.375366,454.176270 619.016296,474.807800 617.646484,495.686707 
	C616.874268,507.457062 613.887390,518.521973 609.987671,529.877686 
z"/>
</svg>